<svg width="75" height="15" viewBox="0 0 75 15" fill="none" xmlns="http://www.w3.org/2000/svg">
<g opacity="0.75">
<path d="M42.2026 11.349H40.1383C39.5078 11.349 38.9956 11.8612 38.9956 12.4917V14.5548H42.2026V11.349Z" fill="#A3A3A3"/>
<path d="M47.6261 5.18368V3.29383C47.6261 3.24787 47.6633 3.21066 47.7093 3.21066H49.8147C51.5907 3.21066 52.9356 4.58073 53.044 6.32723C53.0473 6.37538 53.009 6.41587 52.9608 6.41587H48.8583C48.1776 6.41587 47.625 5.86434 47.625 5.18259L47.6261 5.18368Z" fill="#A3A3A3"/>
<path d="M68.4866 10.3625C66.6806 10.3625 65.203 9.19357 65.1362 7.40292H68.4614C69.0754 7.40292 69.5756 7.90312 69.5756 8.51715V10.3625H68.4866Z" fill="#A3A3A3"/>
<path d="M60.1735 10.3619C61.1551 10.3619 62.0775 10.2273 62.7713 9.53352C63.3546 8.95136 63.8065 8.21489 63.9039 7.40292H59.7171C59.0354 7.40292 58.4795 7.95773 58.4795 8.64058V10.3619H60.1746H60.1735Z" fill="#A3A3A3"/>
<path d="M46.6403 14.5542V8.54537C46.6403 7.91506 46.1281 7.40292 45.4978 7.40292H43.4351V14.5542H46.6403Z" fill="#A3A3A3"/>
<path d="M22.7199 14.5542V8.64605C22.7199 7.95992 22.1629 7.40292 21.4767 7.40292H19.5146V13.3734C19.5146 14.0256 20.0432 14.5553 20.6965 14.5553H22.7209L22.7199 14.5542Z" fill="#A3A3A3"/>
<path d="M30.2233 3.21179C32.0289 3.21179 33.5051 4.62782 33.5719 6.41699H25.1972C24.5111 6.41699 23.9541 5.86 23.9541 5.17387V3.21179H30.2222H30.2233Z" fill="#A3A3A3"/>
<path d="M38.1537 3.21179C36.3481 3.21179 34.8719 4.62782 34.8052 6.41699H42.2015V3.21179H38.1537Z" fill="#A3A3A3"/>
<path d="M71.6517 14.5542C73.4573 14.5542 74.9335 13.1381 75.0002 11.349H65.1362V14.5542H71.6517Z" fill="#A3A3A3"/>
<path d="M68.4848 3.21179C66.6792 3.21179 65.203 4.62782 65.1362 6.41699H75.0002V3.21179H68.4848Z" fill="#A3A3A3"/>
<path d="M27.1604 7.40292V13.3723C27.1604 14.0245 26.6319 14.5542 25.9786 14.5542H23.9541V8.64605C23.9541 7.95883 24.5111 7.40292 25.1972 7.40292H27.1593H27.1604Z" fill="#A3A3A3"/>
<path d="M33.5719 14.5542V8.54537C33.5719 7.91506 33.0598 7.40292 32.4295 7.40292H30.3667V13.3734C30.3667 14.0256 30.8952 14.5553 31.5485 14.5553H33.5719V14.5542Z" fill="#A3A3A3"/>
<path d="M63.9037 11.349H59.6195C58.9892 11.349 58.4771 11.8611 58.4771 12.4914V14.5542H63.9037V11.349Z" fill="#A3A3A3"/>
<path d="M38.0104 14.5542V8.54537C38.0104 7.91396 37.4993 7.40292 36.8679 7.40292H34.8052V11.349C34.8052 13.1195 36.2409 14.5542 38.0104 14.5542Z" fill="#A3A3A3"/>
<path d="M49.8462 7.40292V13.4117C49.8462 14.042 50.3583 14.5542 50.9886 14.5542H53.0514V7.40292H49.8462Z" fill="#A3A3A3"/>
<path d="M57.4899 14.5542V8.54537C57.4899 7.91506 56.9777 7.40292 56.3474 7.40292H54.2847V11.349C54.2847 13.1195 55.7204 14.5542 57.4899 14.5542Z" fill="#A3A3A3"/>
<path d="M71.6496 7.40292C73.4556 7.40292 74.9332 8.57188 75 10.3625H71.6748C71.0607 10.3625 70.5605 9.86671 70.5605 9.25268V7.40292H71.6496Z" fill="#A3A3A3"/>
<path d="M60.6682 3.21179H57.5144C55.7088 3.21179 54.3475 4.62782 54.2808 6.41699H63.9018C63.8351 4.62782 62.4738 3.21179 60.6682 3.21179Z" fill="#A3A3A3"/>
<path d="M6.6925 14.5542V8.64605C6.6925 7.95992 7.2495 7.40292 7.93562 7.40292H9.8977V13.3734C9.8977 14.0256 9.36916 14.5553 8.71586 14.5553H6.69141L6.6925 14.5542Z" fill="#A3A3A3"/>
<path d="M16.4516 3.21179C14.646 3.21179 13.1698 4.62782 13.103 6.41699H21.4777C22.1638 6.41699 22.7208 5.86 22.7208 5.17387V3.21179H16.4516Z" fill="#A3A3A3"/>
<path d="M10.0421 3.21179C8.23616 3.21179 6.75964 4.62811 6.69287 6.41766H11.87V3.21179H10.0432H10.0421Z" fill="#A3A3A3"/>
<path d="M46.6403 5.18698V1.14245C46.6403 0.511038 46.1281 0 45.4978 0H43.4351V6.41588H45.4125C46.0909 6.41588 46.6414 5.86545 46.6414 5.18698H46.6403Z" fill="#A3A3A3"/>
<path d="M18.5275 8.88351H16.3093V7.40402H13.103V14.5553H15.1275C15.7797 14.5553 16.3093 14.0267 16.3093 13.3734V12.0832H18.5275V8.88351Z" fill="#A3A3A3"/>
<path d="M3.2052 11.3544V7.40292H1.14245C0.512132 7.40292 0 7.91506 0 8.54537V11.4081C0 13.1458 1.40836 14.5542 3.14611 14.5542H5.45837V11.3544H3.2052Z" fill="#A3A3A3"/>
<path d="M3.2063 3.21208V1.14495C3.2063 0.514634 2.69417 0.00250244 2.06385 0.00250244H0V5.1851C0 5.86466 0.551527 6.41619 1.23109 6.41619H5.45727V3.21208H3.2052H3.2063Z" fill="#A3A3A3"/>
</g>
</svg>
